<?xml version="1.0" encoding="iso-8859-1"?>
<!-- Uploaded to: SVG Repo, www.svgrepo.com, Generator: SVG Repo Mixer Tools -->
<svg height="800px" width="800px" version="1.1" id="Layer_1" xmlns="http://www.w3.org/2000/svg" xmlns:xlink="http://www.w3.org/1999/xlink" 
	 viewBox="0 0 512 512" xml:space="preserve">
<path style="fill:#A7C7FC;" d="M256,0v512c141.158,0,256-114.842,256-256S397.158,0,256,0z"/>
<path style="fill:#C4D9FD;" d="M0,256c0,141.158,114.842,256,256,256V0C114.842,0,0,114.842,0,256z"/>
<path style="fill:#5286FA;" d="M319.001,115.423c-9.087-9.087-23.824-9.089-32.912,0L161.967,239.548
	c-4.364,4.364-6.817,10.283-6.817,16.457c0,6.173,2.451,12.092,6.817,16.457L286.089,396.58c4.544,4.541,10.501,6.814,16.457,6.814
	s11.913-2.273,16.455-6.817c9.089-9.089,9.089-23.824,0-32.914L211.337,256.002l107.664-107.669
	C328.091,139.247,328.091,124.511,319.001,115.423z"/>
</svg>